<?xml version="1.0" standalone="no"?>
<!DOCTYPE svg PUBLIC "-//W3C//DTD SVG 20010904//EN"
 "http://www.w3.org/TR/2001/REC-SVG-20010904/DTD/svg10.dtd">
<svg version="1.0" xmlns="http://www.w3.org/2000/svg"
 width="700.000000pt" height="700.000000pt" viewBox="0 0 700.000000 700.000000"
 preserveAspectRatio="xMidYMid meet">
<metadata>
Created by potrace 1.14, written by Peter Selinger 2001-2017
</metadata>
<g transform="translate(0.000000,700.000000) scale(0.100000,-0.100000)"
fill="#000000" stroke="none">
<path d="M328 5875 c-2 -1 -30 -5 -63 -8 -71 -7 -152 -32 -182 -56 -29 -24
-49 -87 -64 -206 -18 -150 -16 -521 5 -630 2 -11 7 -42 10 -70 4 -27 11 -75
16 -105 5 -30 12 -73 15 -95 3 -22 9 -58 14 -80 5 -22 14 -62 20 -90 85 -409
194 -732 318 -950 162 -283 523 -717 933 -1120 148 -146 166 -162 290 -262 52
-43 97 -80 100 -83 3 -3 32 -25 65 -50 33 -24 65 -49 71 -55 7 -5 44 -35 83
-65 39 -30 72 -59 72 -65 1 -5 2 -118 4 -250 3 -339 15 -428 62 -453 36 -20
220 -46 388 -57 108 -7 465 -7 515 0 25 4 59 10 75 15 27 8 75 15 170 25 59 6
354 16 620 20 290 5 352 9 459 31 89 18 128 45 162 114 29 58 70 195 79 264 3
23 10 66 15 96 6 30 13 75 16 100 6 42 27 80 45 80 17 0 328 146 414 195 92
52 315 200 351 233 10 10 28 24 40 32 77 55 405 370 508 490 35 40 182 232
246 320 101 140 296 504 365 680 74 189 151 440 171 558 3 15 7 34 9 42 2 8 7
31 10 50 28 167 108 485 149 590 16 43 36 103 41 127 2 10 13 59 25 108 15 60
23 126 23 195 2 93 -1 109 -21 141 -30 49 -93 77 -207 94 -22 4 -51 8 -65 10
-83 13 -385 41 -525 50 -49 3 -124 8 -165 10 -114 8 -224 14 -345 20 -60 3
-155 7 -210 10 -112 7 -230 11 -485 20 -96 3 -222 8 -280 10 -543 20 -1096 24
-1400 9 -235 -11 -1996 -12 -2315 0 -264 9 -641 16 -647 11z m3468 -299 c154
-10 235 -40 309 -112 79 -78 90 -179 31 -272 -71 -111 -141 -146 -321 -157
-54 -4 -103 -9 -107 -11 -26 -17 -177 -43 -328 -59 -30 -3 -75 -8 -100 -10
-25 -3 -81 -7 -125 -10 -44 -3 -111 -8 -150 -11 -146 -13 -491 -12 -530 2 -43
14 -100 71 -141 141 -62 105 -20 235 102 321 40 27 125 50 218 57 39 3 94 7
121 10 28 2 91 7 140 11 191 13 288 29 380 63 52 19 93 26 235 37 47 3 86 7
88 9 2 2 53 0 178 -9z m-299 -970 c57 -4 111 -9 120 -10 10 -2 54 -7 98 -10
44 -4 87 -9 95 -11 8 -2 42 -7 74 -10 68 -7 89 -17 211 -98 193 -129 297 -265
340 -447 34 -146 35 -376 1 -571 -34 -198 -69 -334 -118 -459 -53 -136 -73
-175 -149 -290 -34 -52 -79 -129 -100 -172 -46 -92 -155 -206 -404 -423 -44
-39 -82 -72 -85 -75 -3 -3 -43 -35 -90 -71 -328 -252 -471 -283 -589 -126 -48
63 -87 147 -106 229 -19 81 -14 205 8 239 21 32 107 79 202 109 100 33 227 95
284 140 42 33 74 68 161 177 10 12 150 237 185 298 11 18 54 91 96 162 42 70
93 161 114 202 75 150 98 321 56 416 -30 67 -123 153 -224 207 -72 37 -90 43
-147 43 -57 0 -76 -5 -154 -45 -49 -24 -104 -54 -122 -66 -60 -41 -202 -122
-256 -147 -29 -13 -74 -34 -99 -45 -143 -65 -327 -85 -439 -47 -78 26 -157
107 -194 199 -32 80 -30 109 12 196 55 116 129 202 227 265 63 40 105 54 181
59 67 5 85 11 133 43 18 12 37 20 42 17 5 -3 34 9 64 26 48 28 181 68 275 84
19 3 47 9 62 13 31 9 88 9 235 -1z"/>
</g>
</svg>
