<svg viewBox="0 0 1044.344 484.781"><path d="M988.601 174.203c3.14-2.4 7.36-3.26 12.67-2.56 5.54.73 9.63 2.68 12.26 5.85.6.78 1.82 2.24 3.65 4.36 2.06 2.15 3.4 3.62 4 4.4 5.36 5.64 10.54 19.83 15.52 42.57 5.37 25.14 7.45 42.33 6.23 51.56-.61 4.62-1.88 7.97-3.8 10.07-7.25 8.67-14.72 12.74-22.4 12.19-5.08-.67-8.87-3.99-11.37-9.96-2.5-5.97-5.13-18.06-7.89-36.28-1.21-8.62-3.37-16.3-6.47-23.05-2.19-4.75-3.86-9.91-5.01-15.46-1.12-5.78-2.15-10.38-3.11-13.8-1.87-5.41-2.57-9.85-2.12-13.32.27-2.08.6-3.68.99-4.8 1.66-5.42 3.94-9.35 6.85-11.77Zm-86.13 174.66c-.18 1.39-.2 4.2-.06 8.45.17 4.02 1.07 10.59 2.68 19.73 1.84 9.17 3.34 13.83 4.5 13.98 1.39.18 4.22-2.61 8.51-8.39 4.32-6.01 7.36-11.24 9.12-15.71 1.41-3.57 2.64-5.76 3.69-6.56 1.05-.8 3.72-1.51 8.03-2.11 4.8-.78 8.12-1.04 9.97-.8.23.03.56.19.99.48l.35.05c1.96 1.2 4.06 5.7 6.32 13.52 2.83 8.83 3.84 16.25 3.05 22.25-.85 6.46-4.03 12.74-9.53 18.82-14.55 15.93-28.74 24.63-42.56 26.09-5.03.74-9.05.92-12.05.52-3.69-.49-8.88-3.05-15.54-7.69-7.99-5.28-13.38-11.63-16.16-19.05-2.75-7.64-4.67-20.7-5.75-39.16-.54-10.17 1.21-30.49 5.23-60.97 2.01-15.24 4-27.66 5.98-37.26 5.74-27.43 12.92-44.45 21.54-51.06 3.92-3.01 7.03-4.36 9.34-4.05 3 .4 6.87 2.2 11.62 5.41 4.74 3.21 7.57 5.82 8.48 7.81 1.53 4.43 1.58 12.07.14 22.92-1.49 11.31-4.15 23.41-7.96 36.3-3.72 12.19-6.06 21.87-7 29.02-.98 7.39-2.68 25.6-2.93 27.46Z" class="fills" fill="#8f3d1b"/><g fill="#000"><ellipse rx="27.498" ry="27.696" cx="1008.862" cy="364.338" transform="rotate(7.456 1008.86 364.337)" style="isolation:isolate" class="fills" fill="#71c3e6"/><path d="m1017.181 315.911 1.843-14.087-3.895-.51-1.844 14.087c-3.563.831-6.606 5.068-7.336 10.648-.2 1.491-.21 3.001-.029 4.493l3.898-.502a13.748 13.748 0 0 1 .026-3.481c.588-4.491 3.083-7.577 4.922-7.337 1.839.241 3.456 3.866 2.869 8.356a13.828 13.828 0 0 1-.836 3.283l3.649 1.459a17.81 17.81 0 0 0 1.082-4.232c.73-5.58-1.12-10.458-4.349-12.177Z" style="isolation:isolate" class="fills" fill="#0b7c2b"/><path d="m1006.179 328.074 14.607 1.912a2.448 2.448 0 0 1 1.628.943c.396.52.571 1.177.486 1.828l-.963 7.355-19.476-2.549.963-7.355a2.483 2.483 0 0 1 .939-1.641 2.45 2.45 0 0 1 1.816-.493Zm28.249 25.999-7.795 3.114-8.122-6.051-9.406 3.757-8.123-6.051-9.405 3.757-5.338-3.977a27.923 27.923 0 0 0-3.283 25.083l6.187-2.471 8.122 6.051 9.406-3.757 8.122 6.051 9.407-3.757 6.728 5.014a27.904 27.904 0 0 0 3.5-26.763Z" style="isolation:isolate" class="fills" fill="#fdc069"/><path d="m987.952 357.611 3.895.51-.513 3.923-3.896-.51.514-3.923Zm38.951 5.098 3.896.509-.514 3.924-3.895-.51.513-3.923Zm-30.24 4.023 3.895.51-.513 3.922-3.896-.509.514-3.923Zm10.764-6.572 3.896.51-.514 3.923-3.895-.51.513-3.923Zm6.764 8.866 3.895.51-.513 3.922-3.895-.509.513-3.923Z" style="isolation:isolate" class="fills" fill="#fffdfb"/></g><g fill="#000"><rect rx="0" ry="0" x="891.095" y="206.224" transform="rotate(-46.856 891.104 206.231)" width=".016" height=".016" class="fills" fill="gray"/><rect rx="0" ry="0" x="891.098" y="206.226" transform="rotate(-17.801 891.106 206.235)" width=".016" height=".016" class="fills" fill="gray"/><path d="M891.099 206.233Z" class="fills" fill="gray"/><path d="M891.098 206.229Zl56.133-40.799-44.734 5.692-11.399 35.107Z" class="fills" fill="#f9c543"/><rect rx="0" ry="0" x="891.099" y="206.229" transform="rotate(-17.801 891.107 206.239)" width=".016" height=".016" class="fills" fill="gray"/><path d="M891.098 206.229Z" class="fills" fill="gray"/><path d="m928.012 206.222 19.22-40.787-56.133 40.798Z" class="fills" fill="#fdb53f"/><path d="M891.098 206.229Z" class="fills" fill="gray"/><path d="m861.238 227.929 8.416 44.303 21.437-65.994Z" class="fills" fill="#f9c543"/><path d="m891.09 206.236-21.436 65.996 32.855-30.899-11.419-35.097Zm11.409-35.11-32.856-30.9 21.455 66.003Zm-11.4 35.107Zl56.146 40.781-19.228-40.793Z" class="fills" fill="#fc9a42"/><path d="m891.099 206.233 11.41 35.1 44.736 5.681-56.146-40.781Z" class="fills" fill="#fdb53f"/><path d="M891.098 206.229Zl-21.454-66.002-8.416 44.31 29.87 21.692Z" class="fills" fill="#f9c543"/><path d="m861.228 184.537-39.533 21.699 69.403-.006Z" class="fills" fill="#fdb53f"/><path d="M891.098 206.229Zl-69.403.005 39.539 21.693 29.864-21.698Z" class="fills" fill="#fc9a42"/></g><g mask="url(#a)" clip-path="url(#b)"><defs><clipPath id="b" class="mask-clip-path"><path d="M520.21 121h265.449v355.123H520.21"/></clipPath><filter id="c"><feFlood flood-color="#fff" result="FloodResult"/><feComposite in="FloodResult" in2="SourceGraphic" operator="in" result="comp"/></filter><mask width="265.449" maskUnits="userSpaceOnUse" height="355.123" class="mask-shape" x="520.21" id="a" data-old-y="121" data-old-width="265.449" data-old-x="520.21" y="121" data-old-height="355.123"><g filter="url(#c)"><path d="M755.881 201.303c-.24 2.05-1.1 3.9-2.59 5.55-1.49 1.65-2.35 3.5-2.59 5.55-.39 3.33-1.55 5.54-3.5 6.61-3.98 2.92-19.78 3.56-47.41 1.92l-20.57-.82-1.34 11.54c-.86 7.44-.27 11.28 1.79 11.52.26.03.64.07 1.15.13.54-.2 1.07-.27 1.58-.21 6.02-.34 19.55-.47 40.6-.37 21.33-.13 34.58-.03 39.74.31l2.69.31c10.77 1.25 17.25 7.07 19.43 17.46.61 3.71.87 5.95.78 6.72-.27 2.31-2 6.01-5.18 11.1-3.82 6.06-6.5 9-8.04 8.82l-.77-.09-1.15-.13c-4.1-.47-14.42-.11-30.93 1.1-16.49.95-26.87 1.96-31.16 3.02-2.94.7-9.47.98-19.6.85-1.31.11-2.88.19-4.71.24-1.54-.18-2.69-.31-3.46-.4-.51-.06-1.3-.02-2.35.12-1.06.14-1.74.45-2.06.93-.32.48-.66 1.22-1.04 2.22-.35.74-.61 1.88-.79 3.42-.15 1.28-.23 3.09-.24 5.43.02 2.08-.07 5.06-.25 8.94.1 3.65.1 7.03 0 10.14l.02 23.4 17.57 3.2c19.06 3.77 32.69 7.29 40.89 10.58 8.23 3.03 14.63 7.28 19.19 12.75 2.53 2.89 7.51 6.98 14.96 12.26 5.77 4.05 9.62 7.87 11.54 11.47 2.18 3.63 2.91 8.53 2.2 14.68-.59 5.13-1.33 9.21-2.19 12.22-2.88 11.37-4.47 17.29-4.79 17.77-.92 1.19-2.4 1.67-4.46 1.43-4.36-.5-9.45-3.69-15.27-9.57-28.67-28.53-52.37-43.89-71.1-46.05-3.33-.39-5.8-.41-7.4-.08-2.65.47-4.43 1.18-5.31 2.11-.63.97-1.11 2.86-1.44 5.68-1.2 5.84-2.57 9.84-4.12 12-1.9 2.9-3.05 6.15-3.47 9.74-.39 3.33-4.33 10.42-11.82 21.25-7.24 10.86-13.65 19.09-19.23 24.68-8.76 8.34-23.06 12.8-42.88 13.37-4.68-.02-7.78-.12-9.32-.3-4.62-.53-10.53-2.26-17.73-5.17-9.45-3.69-15.76-7.54-18.94-11.55-3.18-4.01-5.61-11.05-7.3-21.12-1.67-7.99-2.29-13.91-1.84-17.76.12-1.03 1.14-5.33 3.05-12.9 2.32-8.83 5.25-16.16 8.78-21.99 3.79-5.8 9.78-12.65 17.97-20.54 7.33-7.21 17.24-13.08 29.73-17.62 20.65-7.75 36.24-11.01 46.76-9.8l5.77.67 2.33-23.52 1.9-23.18-12.99-2.28-4.23-.49c-7.44-.86-15.83-.27-25.16 1.77-13.59 2.85-25.38 3.69-35.39 2.53-5.64-.65-13.75-2.5-24.32-5.54-10.02-3.24-16.97-6.12-20.84-8.65-3.61-2.5-5.19-5.67-4.75-9.52.12-1.03.55-2.54 1.3-4.53 2.37-7 6.44-11.86 12.22-14.57 5.77-2.71 14.78-4.14 27.01-4.28 7.27.06 14.05-.06 20.32-.38 6.28-.31 14.6-.39 24.98-.23 19.73.2 31.04.21 33.92.03 2.91-.44 4.54-2.2 4.9-5.28.5-4.36.58-8.38.23-12.06-.25-2.37-.71-3.98-1.39-4.84-.68-.86-2.69-1.48-6.02-1.87-4.36-.5-16.29-.72-35.8-.63-28.92.55-50.43.01-64.54-1.62-3.59-.42-6.38-1-8.38-1.75-2.48-1.07-4.53-3.51-6.17-7.34-1.61-4.09-2.2-7.92-1.79-11.52.59-5.13 5.05-9.94 13.37-14.44 8.58-4.47 18.1-7 28.57-7.61 22.02-1.61 42.27-1.35 60.74.79 6.93.8 10.54-.08 10.83-2.65.36-3.08-.24-6.92-1.79-11.52-1.26-4.83-2.7-8.11-4.32-9.86-2.07-2.32-2.99-4.51-2.75-6.56.06-.51.55-2.54 1.48-6.07 1.48-6.07 4.97-10.34 10.45-12.83 4.43-2.35 9.06-4.15 13.88-5.41 4-.84 6.38-1.21 7.15-1.12 1.03.12 2.67 1.61 4.94 4.47 1.76 2.8 3.4 7.67 4.94 14.61 1.82 6.71 2.54 11.73 2.16 15.07-.36 3.08.97 6.22 3.98 9.43 2.04 2.58 4.09 3.98 6.14 4.22 1.54.18 4.15.09 7.83-.26 14.5-1.7 25.59-2.11 33.29-1.22 4.62.53 10.7 1.89 18.25 4.06 11.08 3.1 17.67 5.68 19.77 7.75 1.39 1.46 1.83 4.37 1.33 8.73s-1.44 6.85-2.81 7.47c-1.37.62-2.25 2.6-2.62 5.96Zm-123.02 186.98c.4-1.25.71-2.78.92-4.57.18-1.54-.25-2.37-1.27-2.49-1.03-.12-3.42.38-7.19 1.51-12.88 3.45-23.07 8.38-30.57 14.79-5.15 4.08-9.14 5.96-11.96 5.63-2.57-.3-5.32 1.07-8.27 4.11-2.69 3.07-4.69 6.87-6 11.39-.35.74-.61 1.88-.79 3.42-.27 2.31 1.59 5.38 5.56 9.22 3.52 3.27 6.69 5.06 9.51 5.39 2.05.24 3.86.32 5.43.24 12.01-.43 21.32-4.55 27.95-12.36 2.12-2.61 4.94-7.88 8.46-15.79 3.8-8.14 6.54-14.97 8.22-20.49Z" class="fills" fill="#c5210c"/></g></mask></defs><rect rx="0" ry="0" x="490" y="115" width="325" height="482" class="fills" fill="#e44833"/><path d="M420.493 242.914s232.902-50.217 362.964-187.625l2.647 15.78S685.8 210.583 422.478 254.749l-1.985-11.835Z" class="fills" fill="#ededed"/><path d="M404.565 211.371s232.901-50.217 362.964-187.625l2.646 15.78S669.871 179.04 406.55 223.206l-1.985-11.835Zm30.846 65.535s232.902-50.217 362.964-187.625l2.647 15.78s-100.304 139.514-363.626 183.68l-1.985-11.835Z" class="fills" fill="#ededed"/><path d="M446.963 316.7s232.902-50.218 362.964-187.625l2.647 15.78S712.27 284.368 448.948 328.535l-1.985-11.835Z" class="fills" fill="#ededed"/><path d="M461.882 350.692s232.902-50.218 362.964-187.625l2.647 15.779S727.189 318.36 463.867 362.526l-1.985-11.834Z" class="fills" fill="#ededed"/><path d="M469.255 393.231s232.902-50.217 362.964-187.624l2.647 15.779S734.562 360.9 471.24 405.066l-1.985-11.835Z" class="fills" fill="#ededed"/><path d="M484.174 427.223s232.902-50.217 362.964-187.625l2.647 15.78s-100.304 139.514-363.626 183.68l-1.985-11.835Z" class="fills" fill="#ededed"/><path d="M495.726 467.017s232.902-50.218 362.964-187.625l2.647 15.78s-100.304 139.514-363.626 183.68l-1.985-11.835Z" class="fills" fill="#ededed"/><path d="M510.645 501.009s232.901-50.218 362.964-187.625l2.646 15.779S775.951 468.677 512.63 512.843l-1.985-11.834Z" class="fills" fill="#ededed"/></g><path d="M343.991 148.513c23.54.58 51.84 1.89 84.9 3.93 32.62 2.02 53 4.37 61.13 7.05 5.11 2.06 7.43 7.01 6.94 14.84-.54 8.7-2.66 18.39-6.38 29.08-4.21 11.53-7.96 26.36-11.26 44.49-5.9 31.94-18.71 62.59-38.42 91.94-11.54 17.19-25.87 33.55-42.98 49.08-17.09 15.1-33.05 26.12-47.89 33.06l-22.91 10.37-3.17 19.45c-2.57 13.38-5.9 21.25-9.97 23.62-5.43 3.16-20.59 4.62-45.46 4.4-25.77.15-42.2 1.1-49.3 2.85-6.69 2.21-20.25 2.68-40.69 1.42-18.7-1.16-29.07-2.89-31.12-5.2-2.04-2.31-3.03-11.1-2.96-26.38l.11-22.92-25.62-19.92c-16.24-12.79-34.55-30.95-54.92-54.48-20.38-23.53-33.63-42.25-39.76-56.16-6.92-15.27-12.88-35.29-17.9-60.05-4.99-25.2-7.05-44.97-6.16-59.32.97-15.66 2.4-24.74 4.3-27.24 3.8-5 18.77-6.92 44.89-5.74 17.4 1.07 52.72 1.73 105.98 1.96 53.28-.2 82.79-.78 88.52-1.74 5.3-.98 38.67-.45 100.1 1.61Zm-111.55 22.47c-2.78 2-16.19 3.69-40.24 5.08-6.77.38-12.33 1.35-16.69 2.94-2.93 1.28-5.62 3.52-8.08 6.72-2.43 2.96-3.84 6.16-4.24 9.59-.32 2.75 1.22 6.52 4.6 11.31 3.41 4.57 6.38 7 8.89 7.29 8.69 1.01 23.8.67 45.33-1.01 21.75-1.65 35.18-3.46 40.28-5.42 1.96-.93 5.49-1.34 10.57-1.21 8.34.04 14.69-2.7 19.04-8.23 2.71-3.4 4.27-6.81 4.66-10.24.58-5.03-1.99-9.85-7.72-14.46-3.4-2.71-8.75-4.49-16.08-5.34-7.55-.87-15.55-.87-24 0-9.36.77-14.81 1.76-16.32 2.98Zm-24.75 72.6c-1.79 1.42-3.37 2.04-4.74 1.89-.92-.11-2.39.65-4.44 2.27-2.04 1.62-4.55 2.26-7.53 1.91-3.89-.45-8.59 1.09-14.1 4.63-5.28 3.56-9.38 7.96-12.31 13.18-3.46 5.86-5.31 9.82-5.55 11.88-.21 1.83.6 4.82 2.44 8.98 3.9 8.34 10.2 13.01 18.9 14.01 12.58 1.46 29.16-4.51 49.72-17.89 10.03-6.49 17.33-9.47 21.9-8.94 2.75.32 6.4 1.78 10.97 4.4 6.49 4 10.81 7.74 12.96 11.24 2.37 3.52 3.23 8.14 2.57 13.86-.82 7.09-2.71 13.37-5.66 18.82-2.72 5.48-10.64 18.82-23.76 40.03-5.69 9.08-10.7 15.34-15.04 18.78-4.11 3.47-10.27 6.58-18.47 9.34-6.72 2-11.35 3.9-13.88 5.7-2.53 1.79-3.96 4.18-4.31 7.15-.26 2.29-.26 4.26.01 5.91.95 9.85 4.18 17.99 9.69 24.42 2.63 3.32 5.78 5.19 9.44 5.61 9.15 1.06 26.32-10.05 51.51-33.34 13.21-11.92 19.94-19.02 20.21-21.31.24-2.06 2.44-6.09 6.62-12.1 9.34-12.6 15.84-29.7 19.51-51.3 1.41-8.18 2.21-13.08 2.4-14.68.69-5.95.49-13.27-.58-21.98-1.23-9.42-3.51-16.75-6.84-22.01-3.1-5.23-8.52-10.49-16.26-15.79l-11.6-7.95-23.34-2.7c-4.35-.5-7.91-.8-10.68-.89-2.75-.32-5.05-.47-6.9-.45-1.83-.21-3.69-.2-5.57.05-1.86.02-3.27.2-4.24.55-.71.15-2.38.54-5 1.16-2.37.42-4.39.88-6.07 1.38-5.68.97-9.66 2.36-11.98 4.18Z" class="fills" fill="#8db007"/><g fill="#000"><path d="m323.178 129.974 85.103 28.116 87.243 18.107a173.037 173.037 0 0 0 1.561-10.504l-83.424-27.665-85.446-17.627c-3.251 5.99-5.037 9.573-5.037 9.573Z" style="isolation:isolate" class="fills" fill="#ff2d2d"/><path d="M525.173 77.832c8.583 7.887 12.823 20.364 11.933 39.307l-16.309 9.508c-4.88-7.873-13.944-20.522-25.805-28.319 2.812 17.959 5.022 42.565 2.093 67.365l-158.448-42.496-8.091 2.15-2.331-4.946h-.001.001C375.361 8.56 440.996-5.624 525.173 77.832Z" style="isolation:isolate" class="fills" fill="#ff2d2d"/><path d="M520.193 127.745c-3.565 13.293 2.63 21.278 9.751 23.188 7.121 1.91 17.156-4.426 20.045-15.197.418-8.693-3.953-16.342-11.074-18.252-7.121-1.91-14.733 2.525-18.722 10.261Z" style="isolation:isolate" class="fills" fill="#edf4fa"/><path d="M531.268 145.997c-7.121-1.91-11.493-9.559-11.075-18.253a24.91 24.91 0 0 0-1.911 4.95c-2.866 10.687 1.725 21.205 10.253 23.492 8.528 2.288 17.766-4.521 20.633-15.208.473-1.764.739-3.523.821-5.242-3.989 7.736-11.6 12.171-18.721 10.261Z" style="isolation:isolate" class="fills" fill="#d8e5ef"/><path d="m311.186 159.794 180.305 48.358c3.742 1.004 7.645-1.419 10.378-11.61l2.387-8.899c1.258-4.691-.756-9.307-4.499-10.31l-180.305-48.359c-3.743-1.003-7.797 1.985-9.055 6.675l-2.386 8.9c-2.734 10.19-.568 14.241 3.175 15.245Z" style="isolation:isolate" class="fills" fill="#edf4fa"/><path d="M492.815 203.216 312.51 154.858c-3.743-1.004-5.757-5.619-4.499-10.309l-2.734 10.19c-1.257 4.691.757 9.306 4.499 10.31l180.306 48.358c3.742 1.003 7.796-1.984 9.054-6.674l2.733-10.191c-1.258 4.69-5.312 7.678-9.054 6.674Z" style="isolation:isolate" class="fills" fill="#d8e5ef"/></g></svg>
