<?xml version="1.0" standalone="no"?>
<!DOCTYPE svg PUBLIC "-//W3C//DTD SVG 20010904//EN"
 "http://www.w3.org/TR/2001/REC-SVG-20010904/DTD/svg10.dtd">
<svg version="1.0" xmlns="http://www.w3.org/2000/svg"
 width="1056.000000pt" height="1056.000000pt" viewBox="0 0 1056.000000 1056.000000"
 preserveAspectRatio="xMidYMid meet">
<metadata>
Created by potrace 1.14, written by Peter Selinger 2001-2017
</metadata>
<g transform="translate(0.000000,1056.000000) scale(0.100000,-0.100000)"
fill="#000000" stroke="none">
<path d="M509 8866 c-2 -2 -35 -7 -74 -11 -107 -12 -120 -13 -122 -15 -5 -4
-16 -7 -60 -15 -24 -4 -43 -12 -43 -18 0 -6 -3 -8 -6 -4 -9 8 -75 -26 -96 -50
-21 -22 -51 -93 -44 -100 3 -3 1 -13 -4 -22 -4 -9 -11 -35 -15 -58 -3 -23 -8
-57 -11 -75 -20 -135 -28 -286 -28 -498 1 -198 4 -259 20 -410 11 -96 14 -123
30 -224 3 -22 7 -54 9 -71 2 -16 6 -40 8 -52 3 -11 9 -43 13 -70 3 -26 8 -57
11 -68 2 -11 6 -36 9 -55 2 -19 7 -43 10 -52 3 -10 7 -29 10 -43 2 -14 6 -36
9 -50 3 -14 7 -37 10 -52 7 -35 19 -88 51 -228 14 -60 27 -117 29 -125 7 -33
66 -249 86 -315 99 -324 222 -625 321 -781 21 -34 38 -66 38 -73 0 -6 4 -11 9
-11 5 0 13 -9 16 -20 3 -11 12 -26 18 -33 7 -7 34 -46 62 -87 48 -73 154 -220
165 -230 3 -3 17 -21 30 -40 13 -19 29 -40 35 -46 5 -6 21 -26 35 -44 22 -30
57 -73 108 -135 10 -11 37 -45 62 -75 25 -30 49 -60 55 -66 5 -6 30 -35 55
-64 25 -29 50 -58 55 -64 6 -6 44 -50 85 -96 89 -101 76 -87 170 -190 121
-134 496 -509 611 -611 158 -141 199 -177 199 -173 0 2 13 -7 28 -21 27 -24
188 -150 466 -365 l136 -105 0 -335 c1 -412 4 -484 25 -611 14 -87 51 -131
122 -144 10 -2 18 -4 18 -5 0 -4 161 -30 215 -35 25 -2 45 -4 45 -5 0 -3 67
-10 145 -14 47 -3 85 -5 85 -6 0 -13 662 -19 760 -7 97 11 139 19 155 27 8 4
38 11 65 14 28 4 64 10 80 12 118 20 457 34 955 40 497 5 608 12 805 48 58 11
130 44 161 75 35 35 87 132 110 206 34 107 71 267 79 336 2 19 7 52 11 74 4
22 7 48 8 58 0 9 3 17 6 17 3 0 5 10 6 23 0 27 10 100 20 144 4 21 14 35 28
39 11 4 59 25 106 46 82 38 103 48 235 106 295 130 561 293 861 526 49 38 96
75 104 83 8 7 26 23 40 34 178 145 456 418 630 619 36 41 67 77 70 80 36 33
330 422 330 437 0 4 9 16 19 27 11 12 26 32 33 46 8 14 36 59 62 100 87 133
196 330 298 537 55 111 101 208 102 215 3 12 25 66 46 113 24 53 38 95 32 95
-4 0 -2 4 3 8 13 9 115 314 150 447 40 151 44 169 40 174 -3 2 -1 9 4 15 5 6
21 74 36 151 46 244 92 460 119 565 44 168 91 327 118 393 11 29 24 66 28 82
5 17 22 76 39 133 16 57 32 119 35 138 3 18 10 54 16 78 25 111 33 300 17 376
-9 38 -42 97 -67 118 -40 35 -129 64 -261 86 -19 3 -45 8 -59 10 -14 3 -47 7
-75 11 -27 3 -63 8 -80 10 -28 5 -68 9 -185 20 -25 3 -67 7 -95 9 -158 16
-174 17 -520 41 -44 3 -123 8 -175 10 -52 3 -131 8 -175 11 -44 2 -114 6 -155
8 -42 3 -127 7 -190 11 -185 10 -297 15 -620 29 -41 2 -163 7 -270 10 -107 4
-260 9 -340 12 -80 2 -212 6 -295 9 -82 2 -224 7 -315 10 -91 2 -270 7 -398
10 -129 3 -237 6 -240 8 -15 6 -821 1 -882 -6 -106 -12 -214 -16 -605 -24
-603 -12 -2782 -6 -2815 7 -3 1 -8 2 -11 2 -37 -5 -285 2 -499 14 -129 7 -706
15 -711 10z m5221 -451 c47 -3 92 -7 100 -9 8 -1 33 -6 55 -10 101 -20 190
-54 244 -94 40 -31 112 -102 103 -102 -3 0 4 -10 15 -22 26 -29 55 -112 55
-158 0 -129 -112 -299 -239 -364 -64 -32 -187 -66 -204 -55 -7 4 -17 5 -21 2
-5 -2 -53 -6 -108 -8 -68 -2 -118 -10 -160 -24 -33 -12 -72 -22 -85 -23 -14
-1 -25 -6 -25 -11 0 -4 -3 -6 -8 -3 -4 2 -30 0 -57 -5 -28 -5 -70 -12 -95 -14
-25 -3 -54 -7 -65 -9 -11 -2 -54 -7 -95 -11 -41 -4 -88 -9 -105 -11 -16 -2
-57 -6 -90 -9 -33 -3 -82 -7 -110 -10 -67 -6 -207 -16 -275 -20 -30 -2 -107
-7 -170 -11 -145 -9 -538 -10 -606 -2 -28 3 -64 13 -80 21 -35 18 -109 91
-132 130 -9 15 -20 27 -24 27 -4 0 -8 5 -8 10 0 6 -11 27 -24 48 -12 20 -30
60 -38 87 -27 92 17 216 112 315 91 95 141 118 320 151 30 5 98 12 150 14 52
3 95 5 95 6 0 0 18 2 40 4 22 1 76 6 120 9 44 4 112 10 150 13 39 3 94 6 122
7 29 0 53 4 53 8 0 4 10 7 23 7 26 -1 131 14 182 26 40 9 72 19 80 25 13 10
98 39 132 44 68 12 165 22 308 31 55 4 101 8 102 9 4 3 184 -3 263 -9z m-739
-1459 c14 8 269 3 269 -6 0 -3 24 -5 53 -6 51 -1 196 -13 229 -19 9 -2 48 -7
85 -10 37 -4 82 -9 98 -11 17 -2 55 -6 85 -9 30 -4 69 -9 85 -12 17 -3 40 -5
52 -4 25 1 291 -174 403 -265 57 -47 172 -169 203 -217 37 -55 111 -207 102
-207 -2 0 0 -12 6 -27 6 -16 13 -37 15 -48 3 -11 6 -24 8 -30 5 -19 19 -90 22
-110 1 -11 3 -20 4 -20 2 0 7 -42 16 -140 10 -98 9 -369 0 -410 -4 -16 -8 -43
-10 -60 -4 -32 -13 -84 -21 -125 -3 -14 -7 -41 -10 -60 -3 -19 -7 -46 -10 -60
-2 -14 -7 -36 -10 -50 -2 -14 -7 -38 -10 -55 -2 -16 -9 -45 -14 -63 -5 -18
-10 -35 -10 -37 1 -13 -14 -74 -27 -114 -8 -24 -12 -46 -9 -49 2 -3 1 -10 -4
-16 -5 -6 -20 -47 -34 -91 -14 -44 -34 -101 -46 -128 -11 -26 -21 -49 -21 -52
-4 -26 -103 -226 -131 -267 -11 -14 -19 -31 -19 -37 0 -6 -4 -11 -9 -11 -5 0
-11 -8 -15 -17 -3 -10 -24 -43 -46 -73 -60 -82 -130 -204 -142 -247 -21 -77
-116 -179 -448 -483 -51 -47 -104 -95 -116 -107 -13 -13 -25 -23 -28 -23 -3 0
-16 -10 -28 -22 -13 -13 -50 -45 -82 -73 -33 -27 -70 -60 -84 -72 -14 -13 -28
-23 -31 -23 -3 0 -23 -16 -45 -35 -21 -19 -41 -35 -45 -35 -4 0 -16 -8 -27
-18 -63 -58 -229 -165 -344 -222 -245 -123 -393 -72 -543 188 -21 35 -37 67
-37 72 0 5 -5 21 -12 37 -6 15 -12 30 -13 33 -1 3 -5 12 -8 20 -4 8 -8 24 -10
35 -2 11 -7 27 -10 35 -26 69 -29 302 -5 346 43 79 131 131 333 195 55 17 116
38 135 47 181 78 287 146 373 239 23 25 47 51 52 57 6 6 32 40 58 76 26 36 50
70 55 75 10 14 134 211 162 260 13 22 26 42 29 45 4 3 13 19 21 35 8 17 18 32
21 35 9 7 44 66 70 118 12 23 25 42 30 42 5 0 9 5 9 10 0 6 19 42 43 81 111
183 177 299 170 299 -3 0 0 8 8 18 27 32 86 167 95 217 2 11 10 47 18 80 24
95 33 212 21 275 -9 47 -29 110 -36 110 -4 0 -9 10 -13 23 -11 42 -161 181
-257 236 -217 126 -301 135 -480 51 -112 -52 -265 -142 -281 -165 -4 -5 -8 -6
-8 -2 0 4 -6 3 -12 -3 -19 -15 -88 -60 -94 -60 -2 0 -22 -11 -44 -25 -90 -57
-350 -178 -430 -200 -109 -31 -205 -53 -212 -49 -4 3 -14 2 -20 -3 -22 -14
-187 -11 -251 4 -34 7 -86 25 -115 39 -58 27 -160 118 -183 161 -8 16 -16 30
-20 33 -8 8 -45 91 -59 135 -7 22 -16 49 -20 60 -10 27 4 83 40 157 38 82 83
162 93 166 4 2 7 8 7 14 0 30 145 180 230 238 112 76 205 107 310 105 74 -2
112 8 155 40 42 31 91 55 98 48 8 -8 66 16 96 39 35 27 103 55 174 73 85 21
327 75 355 79 12 2 26 6 30 10 3 4 8 2 10 -3 2 -6 8 -8 13 -5z"/>
</g>
</svg>
